<svg width="500" height="138" viewBox="0 0 500 138" fill="none" xmlns="http://www.w3.org/2000/svg">
<path d="M486.568 109.933L463.307 81.3038H453.123L481.476 48.5354H493.165L467.473 78.0845L468.283 72.2207L499.414 109.933H486.568ZM443.981 109.933V25.9999H455.091V109.933H443.981Z" fill="white"/>
<path d="M346.776 112C341.376 112 336.631 111.08 332.542 109.24C328.453 107.401 324.981 104.986 322.126 101.997C319.349 98.9308 317.227 95.5198 315.761 91.7639C314.373 88.008 313.678 84.1754 313.678 80.2662V78.1966C313.678 74.2874 314.411 70.4548 315.877 66.6989C317.343 62.8663 319.503 59.4554 322.358 56.466C325.212 53.3999 328.684 50.9854 332.773 49.2224C336.862 47.3828 341.53 46.463 346.776 46.463C352.023 46.463 356.69 47.3828 360.779 49.2224C364.868 50.9854 368.34 53.3999 371.195 56.466C374.049 59.4554 376.21 62.8663 377.676 66.6989C379.141 70.4548 379.874 74.2874 379.874 78.1966V80.2662C379.874 84.1754 379.141 88.008 377.676 91.7639C376.287 95.5198 374.165 98.9308 371.311 101.997C368.533 104.986 365.1 107.401 361.011 109.24C356.922 111.08 352.177 112 346.776 112ZM346.776 102.112C351.405 102.112 355.34 101.115 358.581 99.1224C361.898 97.0529 364.405 94.2934 366.103 90.8441C367.877 87.3948 368.765 83.5239 368.765 79.2314C368.765 74.8623 367.877 70.9531 366.103 67.5038C364.328 64.0544 361.782 61.3333 358.465 59.3404C355.224 57.3474 351.328 56.351 346.776 56.351C342.302 56.351 338.405 57.3474 335.088 59.3404C331.77 61.3333 329.224 64.0544 327.45 67.5038C325.675 70.9531 324.788 74.8623 324.788 79.2314C324.788 83.5239 325.637 87.3948 327.334 90.8441C329.109 94.2934 331.616 97.0529 334.856 99.1224C338.174 101.115 342.147 102.112 346.776 102.112Z" fill="white"/>
<path d="M293.556 110.622C288.927 110.622 284.915 109.971 281.52 108.668C278.203 107.365 275.618 105.142 273.767 101.999C271.992 98.7798 271.105 94.449 271.105 89.0068V26.1458H281.752V90.3865C281.752 93.6825 282.639 96.2503 284.413 98.09C286.265 99.8529 288.85 100.734 292.167 100.734H303.046V110.622H293.556ZM260.458 56.8132V48.5349H303.046V56.8132H260.458Z" fill="white"/>
<path d="M227.692 111.778C219.591 111.778 213.303 110.053 208.828 106.604C204.43 103.154 202.154 98.4402 202 92.4614H212.416C212.57 94.8376 213.766 97.0988 216.003 99.245C218.318 101.315 222.214 102.349 227.692 102.349C232.629 102.349 236.41 101.391 239.033 99.475C241.656 97.482 242.968 95.0675 242.968 92.2314C242.968 89.7019 242.003 87.7473 240.074 86.3676C238.146 84.9112 235.021 83.9531 230.7 83.4932L223.988 82.8033C218.125 82.1901 213.341 80.4654 209.638 77.6293C205.935 74.7166 204.083 70.6541 204.083 65.4418C204.083 61.5325 205.086 58.1982 207.092 55.4388C209.098 52.6027 211.875 50.4564 215.424 49C218.973 47.467 223.062 46.7005 227.692 46.7005C234.635 46.7005 240.267 48.2335 244.588 51.2996C248.908 54.3656 251.146 58.9264 251.3 64.9818H240.884C240.807 62.529 239.65 60.4594 237.413 58.7731C235.252 57.0101 232.012 56.1286 227.692 56.1286C223.371 56.1286 220.092 57.0101 217.855 58.7731C215.617 60.5361 214.499 62.759 214.499 65.4418C214.499 67.7413 215.27 69.5809 216.813 70.9607C218.433 72.3404 221.057 73.2219 224.683 73.6051L231.395 74.295C238.03 74.9849 243.353 76.8245 247.365 79.8139C251.377 82.7266 253.383 86.8658 253.383 92.2314C253.383 96.064 252.264 99.475 250.027 102.464C247.867 105.377 244.858 107.677 241 109.363C237.143 110.973 232.706 111.778 227.692 111.778Z" fill="white"/>
<path d="M396.513 48.5466V109.944H407.623V76.716V48.5466H396.513Z" fill="white"/>
<path d="M400.599 57.2446V48.5385H431.582V57.2446H400.599Z" fill="white"/>
<path fill-rule="evenodd" clip-rule="evenodd" d="M0 0H69H138V23H69H0V0ZM69 23.0001H0V46.0001H69V68.9999H138V45.9999H69V23.0001ZM69 69H0V92H69V69ZM69 92.0001H138V115V115V138H69H0V115H69V92.0001Z" fill="white"/>
</svg>
